:SAMPLES-PER-SECOND 24
:FULLY-SPECIFIED
:DEGREES
415
root  5.11011 40.7188 11.085 7.01562 -66.5416 1.51505
RightUpLeg  -13.268 7.34689 -12.0357
RightLeg  18.853 -2.17706 -1.03281
RightFoot  -3.753 -0.695309 10.0555
RightToes  -2.08645e-008 3.77894e-005 6.81332e-007
Spine  -0.463935 -2.11519 -3.75483
Spine1  3.86217 -3.0795 4.63674
HEad  -37.0552 44.5494 -23.0548
LeftShoulder1  6.35861 -12.1915 -34.5008
LeftArm  -3.91326 38.1244 -32.7619
LeftForeArm  166.699 -65.4752 -158.159
LeftHand  -0.116012 -2.96144 1.84162
RightShoulder  3.74253 6.42401 31.8097
RightArm  17.6921 -44.092 23.2912
RightForeArm  155.89 71.1623 149.697
RightHand  -0.370993 6.82017 -3.86865
LeftUpLeg  -10.2977 3.65275 13.4329
LeftLeg  17.184 14.0887 5.34934
LeftFoot  13.837 2.67419 -12.2997
LeftToes  1.24767e-006 1.47042e-008 1.32732e-009
416
root  5.13934 39.7268 10.9599 7.08691 -68.2994 0.632935
RightUpLeg  -13.5989 8.98687 -11.5549
RightLeg  21.0153 -0.920593 -0.602415
RightFoot  -9.49339 -0.210722 8.59648
RightToes  -2.08645e-008 3.77894e-005 6.81332e-007
Spine  2.48752 -1.63127 -3.64102
Spine1  1.98201 -2.54817 4.26911
HEad  -38.6934 44.7283 -23.7354
LeftShoulder1  6.21524 -12.082 -33.8815
LeftArm  -1.85774 36.3664 -29.753
LeftForeArm  162.92 -66.9938 -156.199
LeftHand  -0.16042 -2.95219 2.46219
RightShoulder  3.67168 6.39753 31.1905
RightArm  18.6393 -41.741 21.7779
RightForeArm  151.583 72.921 146.007
RightHand  -0.459216 6.95557 -4.65854
LeftUpLeg  -10.2362 4.98886 14.8924
LeftLeg  21.1183 16.9228 7.36939
LeftFoot  8.37168 2.80883 -16.5575
LeftToes  1.24767e-006 1.47042e-008 1.32732e-009
417
root  5.34904 38.6539 10.952 8.73828 -70.366 -2.11667
RightUpLeg  -15.2319 10.5438 -10.4382
RightLeg  25.5355 -2.3793 -1.47327
RightFoot  -15.7521 0.146016 6.65037
RightToes  -2.08645e-008 3.77894e-005 6.81332e-007
Spine  5.2764 -1.1663 -1.23046
Spine1  1.8315 -1.71988 2.43026
HEad  -43.0048 44.7979 -26.0174
LeftShoulder1  6.82321 -12.6345 -36.2285
LeftArm  -1.73731 30.5955 -24.4308
LeftForeArm  159.775 -69.207 -153.157
LeftHand  -0.297476 -2.91864 4.3839
RightShoulder  3.80579 6.51791 32.089
RightArm  16.9504 -34.3924 22.9689
RightForeArm  126.458 78.68 120.088
RightHand  -0.603995 7.00159 -5.99646
LeftUpLeg  -9.20189 6.1035 16.3839
LeftLeg  24.5075 14.329 7.34407
LeftFoot  -1.24428 2.00382 -22.561
LeftToes  1.24767e-006 1.47042e-008 1.32732e-009
418
root  5.73544 38.0423 11.0676 10.49 -71.4061 -4.48083
RightUpLeg  -17.5311 11.3682 -10.0604
RightLeg  29.7237 -3.05164 -2.11662
RightFoot  -18.1546 0.227988 5.89408
RightToes  -2.08645e-008 3.77894e-005 6.81332e-007
Spine  7.75526 -1.10297 1.33319
Spine1  2.4203 -1.10832 0.0792148
HEad  -48.0571 44.2914 -29.0053
LeftShoulder1  7.70452 -13.4482 -39.2845
LeftArm  -3.99535 22.959 -21.3636
LeftForeArm  155.241 -73.317 -145.594
LeftHand  -0.411464 -2.86307 6.01839
RightShoulder  4.04463 6.73679 33.6095
RightArm  14.3824 -25.4008 26.0579
RightForeArm  72.1483 79.1356 62.4354
RightHand  -0.630867 6.88643 -6.30076
LeftUpLeg  -9.72794 5.7453 16.9759
LeftLeg  27.8696 13.8244 8.13906
LeftFoot  -6.9759 0.96472 -23.9087
LeftToes  1.24767e-006 1.47042e-008 1.32732e-009
419
root  6.16693 38.0302 11.2825 10.6653 -69.2337 -4.24796
RightUpLeg  -18.167 9.51677 -10.5688
RightLeg  30.076 -2.76932 -1.96977
RightFoot  -17.2828 0.239972 6.9042
RightToes  -2.08645e-008 3.77894e-005 6.81332e-007
Spine  10.342 -1.69526 1.52931
Spine1  1.02078 -1.75374 0.461338
HEad  -50.3258 43.795 -30.5856
LeftShoulder1  7.91335 -13.6826 -39.8493
LeftArm  -5.85552 17.7857 -23.8413
LeftForeArm  147.245 -76.271 -136.473
LeftHand  -0.431368 -2.78354 6.35466
RightShoulder  4.12534 6.85479 33.9364
RightArm  13.9157 -21.1473 28.709
RightForeArm  64.1307 77.9247 51.8459
RightHand  -0.551561 7.0461 -5.49206
LeftUpLeg  -14.4291 6.14771 16.6433
LeftLeg  32.8745 12.1619 8.65964
LeftFoot  -5.5206 1.14451 -21.7944
LeftToes  1.24767e-006 1.47042e-008 1.32732e-009
420
root  6.58338 38.3722 11.6954 11.5823 -65.0251 -3.69299
RightUpLeg  -16.9974 6.32107 -11.0956
RightLeg  26.1271 -3.96179 -2.32606
RightFoot  -14.7763 0.153464 8.49655
RightToes  -2.08645e-008 3.77894e-005 6.81332e-007
Spine  11.8646 -2.33574 1.41149
Spine1  -1.56913 -2.76798 2.76608
HEad  -49.3493 43.4188 -29.9331
LeftShoulder1  7.66688 -13.5374 -38.8455
LeftArm  -4.75394 15.4955 -27.9301
LeftForeArm  146.854 -75.6437 -138.228
LeftHand  -0.426878 -2.46228 6.52534
RightShoulder  4.03603 6.79739 33.2935
RightArm  16.2357 -21.0421 30.068
RightForeArm  92.4447 80.2683 79.7332
RightHand  -0.566064 7.79186 -5.3403
LeftUpLeg  -21.169 8.8343 15.4275
LeftLeg  36.9817 8.11778 6.88704
LeftFoot  -0.983189 1.59802 -17.5434
LeftToes  1.24767e-006 1.47042e-008 1.32732e-009
421
root  6.97024 38.8616 12.2454 13.2058 -63.1685 -3.5513
RightUpLeg  -15.5881 6.10925 -12.0345
RightLeg  19.9096 -6.37448 -2.64071
RightFoot  -10.6119 -0.125899 8.83902
RightToes  -2.08645e-008 3.77894e-005 6.81332e-007
Spine  11.7688 -1.7683 1.77687
Spine1  -3.08774 -2.1559 2.853
HEad  -47.0676 42.8846 -27.9504
LeftShoulder1  7.52064 -13.4624 -38.2111
LeftArm  -1.1368 13.764 -28.656
LeftForeArm  154.744 -73.0983 -145.93
LeftHand  -0.390527 -2.48339 5.97179
RightShoulder  3.98937 6.76348 32.9698
RightArm  19.5717 -19.7245 30.8178
RightForeArm  118.056 80.17 105.219
RightHand  -0.543241 8.04843 -5.05603
LeftUpLeg  -25.0767 14.9686 12.7851
LeftLeg  37.1328 9.03805 7.65125
LeftFoot  0.519437 1.40156 -13.4768
LeftToes  1.24767e-006 1.47042e-008 1.32732e-009
